<svg xmlns="http://www.w3.org/2000/svg" xmlns:xlink="http://www.w3.org/1999/xlink" xmlns:serif="http://www.serif.com/" viewBox="0 0 32 40" version="1.1" xml:space="preserve" style="" x="0px" y="0px" fill-rule="evenodd" clip-rule="evenodd" stroke-linejoin="round" stroke-miterlimit="2"><g transform="matrix(1,0,0,1,-288,-96)"><path d="M292,118L292,121C292,123.761 294.239,126 297,126C300.972,126 307.028,126 311,126C313.761,126 316,123.761 316,121C316,119.432 316,118 316,118C316,117.448 315.552,117 315,117C314.448,117 314,117.448 314,118L314,121C314,122.657 312.657,124 311,124C307.028,124 300.972,124 297,124C295.343,124 294,122.657 294,121C294,121 294,118 294,118C294,117.448 293.552,117 293,117C292.448,117 292,117.448 292,118ZM303,101.414L303,117C303,117.552 303.448,118 304,118C304.552,118 305,117.552 305,117L305,101.414L308.293,104.707C308.683,105.097 309.317,105.097 309.707,104.707C310.097,104.317 310.097,103.683 309.707,103.293L304.707,98.293C304.317,97.902 303.683,97.902 303.293,98.293L298.293,103.293C297.903,103.683 297.903,104.317 298.293,104.707C298.683,105.097 299.317,105.097 299.707,104.707L303,101.414Z"/></g><text x="0" y="47" fill="#000000" font-size="5px" font-weight="bold" font-family="'Helvetica Neue', Helvetica, Arial-Unicode, Arial, Sans-serif">Created by Putri Afifah Octaviani</text><text x="0" y="52" fill="#000000" font-size="5px" font-weight="bold" font-family="'Helvetica Neue', Helvetica, Arial-Unicode, Arial, Sans-serif">from the Noun Project</text></svg>